<svg xmlns="http://www.w3.org/2000/svg" xmlns:xlink="http://www.w3.org/1999/xlink" width="500" zoomAndPan="magnify" viewBox="0 0 375 374.999991" height="500" preserveAspectRatio="xMidYMid meet" version="1.0"><defs><g/><clipPath id="3ec7d48b74"><path d="M 184.652344 78.214844 L 190.652344 78.214844 L 190.652344 265.714844 L 184.652344 265.714844 Z M 184.652344 78.214844 " clip-rule="nonzero"/></clipPath><clipPath id="24b4d98ff3"><path d="M 95.964844 96.964844 L 180.714844 96.964844 L 180.714844 246.964844 L 95.964844 246.964844 Z M 95.964844 96.964844 " clip-rule="nonzero"/></clipPath><clipPath id="a1ebe0903f"><path d="M 145.703125 117.054688 L 235.253906 117.054688 L 235.253906 226.554688 L 145.703125 226.554688 Z M 145.703125 117.054688 " clip-rule="nonzero"/></clipPath></defs><rect x="-37.5" width="450" fill="#ffffff" y="-37.499999" height="449.999989" fill-opacity="1"/><rect x="-37.5" width="450" fill="#121212" y="-37.499999" height="449.999989" fill-opacity="1"/><g clip-path="url(#3ec7d48b74)"><path fill="#ffffff" d="M 184.652344 78.214844 L 190.652344 78.214844 L 190.652344 265.714844 L 184.652344 265.714844 Z M 184.652344 78.214844 " fill-opacity="1" fill-rule="nonzero"/></g><g clip-path="url(#24b4d98ff3)"><path fill="#d9d9d9" d="M 207.714844 124.421875 L 207.714844 96.980469 L 95.964844 96.980469 L 95.964844 246.957031 L 207.714844 246.957031 L 207.714844 219.507812 L 123.414062 219.507812 L 123.414062 185.6875 L 207.714844 185.6875 L 207.714844 158.242188 L 123.414062 158.242188 L 123.414062 124.421875 Z M 207.714844 124.421875 " fill-opacity="1" fill-rule="nonzero"/></g><g clip-path="url(#a1ebe0903f)"><path fill="#8c52ff" d="M 233.054688 116.578125 L 215.5 116.578125 C 214.113281 116.578125 212.992188 117.703125 212.992188 119.085938 L 212.992188 186.796875 L 212.570312 186.796875 L 165.921875 117.636719 C 165.453125 116.972656 164.558594 116.578125 163.746094 116.578125 L 147.789062 116.578125 C 146.402344 116.578125 145.28125 117.703125 145.28125 119.085938 L 145.28125 224.414062 C 145.28125 225.796875 146.402344 226.921875 147.789062 226.921875 L 165.34375 226.921875 C 166.730469 226.921875 167.851562 225.796875 167.851562 224.414062 L 167.851562 156.703125 L 168.277344 156.703125 L 214.925781 225.863281 C 215.394531 226.527344 216.359375 226.921875 217.171875 226.921875 L 233.054688 226.921875 C 234.441406 226.921875 235.5625 225.796875 235.5625 224.414062 L 235.5625 119.085938 C 235.5625 117.703125 234.441406 116.578125 233.054688 116.578125 Z M 233.054688 116.578125 " fill-opacity="1" fill-rule="nonzero"/></g><g fill="#ffffff" fill-opacity="1"><g transform="translate(109.804092, 290.999513)"><g><path d="M 14.21875 0 L 1.671875 0 L 1.671875 -18.796875 L 14.21875 -18.796875 L 14.21875 -15.625 L 5.21875 -15.625 L 5.21875 -10.984375 L 13.28125 -10.984375 L 13.28125 -7.828125 L 5.21875 -7.828125 L 5.21875 -3.171875 L 14.21875 -3.171875 Z M 14.21875 0 "/></g></g></g><g fill="#ffffff" fill-opacity="1"><g transform="translate(125.101099, 290.999513)"><g><path d="M 7.859375 5.25 C 6.921875 5.25 5.992188 5.117188 5.078125 4.859375 C 4.171875 4.609375 3.390625 4.15625 2.734375 3.5 C 2.078125 2.84375 1.648438 1.921875 1.453125 0.734375 L 4.8125 0.734375 C 5.019531 1.410156 5.375 1.898438 5.875 2.203125 C 6.375 2.503906 7.023438 2.65625 7.828125 2.65625 C 8.960938 2.65625 9.78125 2.394531 10.28125 1.875 C 10.78125 1.363281 11.03125 0.707031 11.03125 -0.09375 L 11.03125 -2.046875 C 10.476562 -1.253906 9.890625 -0.71875 9.265625 -0.4375 C 8.640625 -0.164062 7.914062 -0.03125 7.09375 -0.03125 C 5.894531 -0.03125 4.835938 -0.332031 3.921875 -0.9375 C 3.015625 -1.539062 2.304688 -2.367188 1.796875 -3.421875 C 1.285156 -4.472656 1.03125 -5.671875 1.03125 -7.015625 C 1.03125 -8.398438 1.285156 -9.625 1.796875 -10.6875 C 2.304688 -11.757812 3.015625 -12.597656 3.921875 -13.203125 C 4.835938 -13.816406 5.894531 -14.125 7.09375 -14.125 C 7.914062 -14.125 8.640625 -13.972656 9.265625 -13.671875 C 9.890625 -13.378906 10.476562 -12.847656 11.03125 -12.078125 L 11.03125 -13.828125 L 14.359375 -13.828125 L 14.359375 -0.890625 C 14.359375 0.691406 14.070312 1.929688 13.5 2.828125 C 12.925781 3.722656 12.144531 4.347656 11.15625 4.703125 C 10.175781 5.066406 9.078125 5.25 7.859375 5.25 Z M 7.890625 -2.890625 C 8.585938 -2.890625 9.203125 -3.066406 9.734375 -3.421875 C 10.273438 -3.785156 10.695312 -4.28125 11 -4.90625 C 11.300781 -5.539062 11.453125 -6.265625 11.453125 -7.078125 C 11.453125 -7.878906 11.300781 -8.59375 11 -9.21875 C 10.695312 -9.851562 10.273438 -10.351562 9.734375 -10.71875 C 9.203125 -11.082031 8.585938 -11.265625 7.890625 -11.265625 C 7.179688 -11.265625 6.5625 -11.078125 6.03125 -10.703125 C 5.507812 -10.335938 5.101562 -9.835938 4.8125 -9.203125 C 4.53125 -8.566406 4.390625 -7.859375 4.390625 -7.078125 C 4.390625 -6.285156 4.53125 -5.570312 4.8125 -4.9375 C 5.101562 -4.300781 5.507812 -3.800781 6.03125 -3.4375 C 6.5625 -3.070312 7.179688 -2.890625 7.890625 -2.890625 Z M 7.890625 -2.890625 "/></g></g></g><g fill="#ffffff" fill-opacity="1"><g transform="translate(140.964669, 290.999513)"><g><path d="M 5.5 0.265625 C 4.195312 0.265625 3.113281 -0.0820312 2.25 -0.78125 C 1.394531 -1.476562 0.96875 -2.484375 0.96875 -3.796875 C 0.96875 -4.535156 1.109375 -5.160156 1.390625 -5.671875 C 1.679688 -6.191406 2.0625 -6.617188 2.53125 -6.953125 C 2.976562 -7.265625 3.484375 -7.507812 4.046875 -7.6875 C 4.617188 -7.863281 5.191406 -8.007812 5.765625 -8.125 L 9.875 -8.890625 C 9.84375 -9.742188 9.625 -10.394531 9.21875 -10.84375 C 8.800781 -11.28125 8.1875 -11.5 7.375 -11.5 C 6.75 -11.5 6.191406 -11.3125 5.703125 -10.9375 C 5.222656 -10.570312 4.914062 -10.0625 4.78125 -9.40625 L 1.484375 -9.40625 C 1.640625 -10.488281 2.015625 -11.375 2.609375 -12.0625 C 3.203125 -12.757812 3.921875 -13.273438 4.765625 -13.609375 C 5.609375 -13.953125 6.484375 -14.125 7.390625 -14.125 C 8.191406 -14.125 8.960938 -14.003906 9.703125 -13.765625 C 10.441406 -13.535156 11.066406 -13.1875 11.578125 -12.71875 C 12.117188 -12.238281 12.503906 -11.691406 12.734375 -11.078125 C 12.960938 -10.460938 13.097656 -9.820312 13.140625 -9.15625 C 13.179688 -8.488281 13.203125 -7.832031 13.203125 -7.1875 L 13.203125 0 L 9.875 0 L 9.875 -1.875 C 9.53125 -1.269531 9.113281 -0.8125 8.625 -0.5 C 8.195312 -0.21875 7.710938 -0.0195312 7.171875 0.09375 C 6.640625 0.207031 6.082031 0.265625 5.5 0.265625 Z M 6.3125 -2.34375 C 6.96875 -2.34375 7.554688 -2.472656 8.078125 -2.734375 C 8.804688 -3.097656 9.296875 -3.582031 9.546875 -4.1875 C 9.804688 -4.789062 9.941406 -5.546875 9.953125 -6.453125 L 6.65625 -5.796875 C 6.175781 -5.710938 5.785156 -5.601562 5.484375 -5.46875 C 5.179688 -5.332031 4.929688 -5.175781 4.734375 -5 C 4.597656 -4.875 4.488281 -4.71875 4.40625 -4.53125 C 4.320312 -4.351562 4.28125 -4.148438 4.28125 -3.921875 C 4.28125 -3.410156 4.472656 -3.019531 4.859375 -2.75 C 5.253906 -2.476562 5.738281 -2.34375 6.3125 -2.34375 Z M 6.3125 -2.34375 "/></g></g></g><g fill="#8c52ff" fill-opacity="1"><g transform="translate(162.140026, 290.999513)"><g><path d="M 5.21875 0 L 1.671875 0 L 1.671875 -18.796875 L 5.671875 -18.796875 L 13.375 -5.34375 L 13.375 -18.796875 L 16.921875 -18.796875 L 16.921875 0 L 12.90625 0 L 5.21875 -13.484375 Z M 5.21875 0 "/></g></g></g><g fill="#8c52ff" fill-opacity="1"><g transform="translate(180.737842, 290.999513)"><g><path d="M 6.328125 0.265625 C 4.191406 0.265625 2.753906 -0.492188 2.015625 -2.015625 C 1.804688 -2.472656 1.65625 -2.976562 1.5625 -3.53125 C 1.46875 -4.082031 1.421875 -4.859375 1.421875 -5.859375 L 1.421875 -13.828125 L 4.75 -13.828125 L 4.75 -5.84375 C 4.75 -5.132812 4.800781 -4.5625 4.90625 -4.125 C 5.019531 -3.6875 5.191406 -3.335938 5.421875 -3.078125 C 5.816406 -2.671875 6.398438 -2.46875 7.171875 -2.46875 C 8.117188 -2.46875 8.828125 -2.742188 9.296875 -3.296875 C 9.566406 -3.628906 9.765625 -4.070312 9.890625 -4.625 C 10.015625 -5.175781 10.078125 -5.898438 10.078125 -6.796875 L 10.078125 -13.828125 L 13.40625 -13.828125 L 13.40625 0 L 10.078125 0 L 10.078125 -1.75 C 9.566406 -1.039062 9.019531 -0.523438 8.4375 -0.203125 C 7.851562 0.109375 7.148438 0.265625 6.328125 0.265625 Z M 6.328125 0.265625 "/></g></g></g><g fill="#8c52ff" fill-opacity="1"><g transform="translate(195.665365, 290.999513)"><g><path d="M 7.859375 5.25 C 6.921875 5.25 5.992188 5.117188 5.078125 4.859375 C 4.171875 4.609375 3.390625 4.15625 2.734375 3.5 C 2.078125 2.84375 1.648438 1.921875 1.453125 0.734375 L 4.8125 0.734375 C 5.019531 1.410156 5.375 1.898438 5.875 2.203125 C 6.375 2.503906 7.023438 2.65625 7.828125 2.65625 C 8.960938 2.65625 9.78125 2.394531 10.28125 1.875 C 10.78125 1.363281 11.03125 0.707031 11.03125 -0.09375 L 11.03125 -2.046875 C 10.476562 -1.253906 9.890625 -0.71875 9.265625 -0.4375 C 8.640625 -0.164062 7.914062 -0.03125 7.09375 -0.03125 C 5.894531 -0.03125 4.835938 -0.332031 3.921875 -0.9375 C 3.015625 -1.539062 2.304688 -2.367188 1.796875 -3.421875 C 1.285156 -4.472656 1.03125 -5.671875 1.03125 -7.015625 C 1.03125 -8.398438 1.285156 -9.625 1.796875 -10.6875 C 2.304688 -11.757812 3.015625 -12.597656 3.921875 -13.203125 C 4.835938 -13.816406 5.894531 -14.125 7.09375 -14.125 C 7.914062 -14.125 8.640625 -13.972656 9.265625 -13.671875 C 9.890625 -13.378906 10.476562 -12.847656 11.03125 -12.078125 L 11.03125 -13.828125 L 14.359375 -13.828125 L 14.359375 -0.890625 C 14.359375 0.691406 14.070312 1.929688 13.5 2.828125 C 12.925781 3.722656 12.144531 4.347656 11.15625 4.703125 C 10.175781 5.066406 9.078125 5.25 7.859375 5.25 Z M 7.890625 -2.890625 C 8.585938 -2.890625 9.203125 -3.066406 9.734375 -3.421875 C 10.273438 -3.785156 10.695312 -4.28125 11 -4.90625 C 11.300781 -5.539062 11.453125 -6.265625 11.453125 -7.078125 C 11.453125 -7.878906 11.300781 -8.59375 11 -9.21875 C 10.695312 -9.851562 10.273438 -10.351562 9.734375 -10.71875 C 9.203125 -11.082031 8.585938 -11.265625 7.890625 -11.265625 C 7.179688 -11.265625 6.5625 -11.078125 6.03125 -10.703125 C 5.507812 -10.335938 5.101562 -9.835938 4.8125 -9.203125 C 4.53125 -8.566406 4.390625 -7.859375 4.390625 -7.078125 C 4.390625 -6.285156 4.53125 -5.570312 4.8125 -4.9375 C 5.101562 -4.300781 5.507812 -3.800781 6.03125 -3.4375 C 6.5625 -3.070312 7.179688 -2.890625 7.890625 -2.890625 Z M 7.890625 -2.890625 "/></g></g></g><g fill="#8c52ff" fill-opacity="1"><g transform="translate(211.528935, 290.999513)"><g><path d="M 4.828125 0 L 1.5 0 L 1.5 -13.828125 L 4.828125 -13.828125 L 4.828125 -12.171875 C 5.359375 -12.890625 5.945312 -13.394531 6.59375 -13.6875 C 7.238281 -13.976562 7.960938 -14.125 8.765625 -14.125 L 9.171875 -14.125 L 9.171875 -10.921875 L 8.40625 -10.921875 C 7.84375 -10.921875 7.359375 -10.84375 6.953125 -10.6875 C 6.554688 -10.539062 6.21875 -10.335938 5.9375 -10.078125 C 5.570312 -9.710938 5.296875 -9.238281 5.109375 -8.65625 C 4.921875 -8.070312 4.828125 -7.320312 4.828125 -6.40625 Z M 4.828125 0 "/></g></g></g><g fill="#8c52ff" fill-opacity="1"><g transform="translate(221.160385, 290.999513)"><g><path d="M 5.5 0.265625 C 4.195312 0.265625 3.113281 -0.0820312 2.25 -0.78125 C 1.394531 -1.476562 0.96875 -2.484375 0.96875 -3.796875 C 0.96875 -4.535156 1.109375 -5.160156 1.390625 -5.671875 C 1.679688 -6.191406 2.0625 -6.617188 2.53125 -6.953125 C 2.976562 -7.265625 3.484375 -7.507812 4.046875 -7.6875 C 4.617188 -7.863281 5.191406 -8.007812 5.765625 -8.125 L 9.875 -8.890625 C 9.84375 -9.742188 9.625 -10.394531 9.21875 -10.84375 C 8.800781 -11.28125 8.1875 -11.5 7.375 -11.5 C 6.75 -11.5 6.191406 -11.3125 5.703125 -10.9375 C 5.222656 -10.570312 4.914062 -10.0625 4.78125 -9.40625 L 1.484375 -9.40625 C 1.640625 -10.488281 2.015625 -11.375 2.609375 -12.0625 C 3.203125 -12.757812 3.921875 -13.273438 4.765625 -13.609375 C 5.609375 -13.953125 6.484375 -14.125 7.390625 -14.125 C 8.191406 -14.125 8.960938 -14.003906 9.703125 -13.765625 C 10.441406 -13.535156 11.066406 -13.1875 11.578125 -12.71875 C 12.117188 -12.238281 12.503906 -11.691406 12.734375 -11.078125 C 12.960938 -10.460938 13.097656 -9.820312 13.140625 -9.15625 C 13.179688 -8.488281 13.203125 -7.832031 13.203125 -7.1875 L 13.203125 0 L 9.875 0 L 9.875 -1.875 C 9.53125 -1.269531 9.113281 -0.8125 8.625 -0.5 C 8.195312 -0.21875 7.710938 -0.0195312 7.171875 0.09375 C 6.640625 0.207031 6.082031 0.265625 5.5 0.265625 Z M 6.3125 -2.34375 C 6.96875 -2.34375 7.554688 -2.472656 8.078125 -2.734375 C 8.804688 -3.097656 9.296875 -3.582031 9.546875 -4.1875 C 9.804688 -4.789062 9.941406 -5.546875 9.953125 -6.453125 L 6.65625 -5.796875 C 6.175781 -5.710938 5.785156 -5.601562 5.484375 -5.46875 C 5.179688 -5.332031 4.929688 -5.175781 4.734375 -5 C 4.597656 -4.875 4.488281 -4.71875 4.40625 -4.53125 C 4.320312 -4.351562 4.28125 -4.148438 4.28125 -3.921875 C 4.28125 -3.410156 4.472656 -3.019531 4.859375 -2.75 C 5.253906 -2.476562 5.738281 -2.34375 6.3125 -2.34375 Z M 6.3125 -2.34375 "/></g></g></g><g fill="#8c52ff" fill-opacity="1"><g transform="translate(235.718414, 290.999513)"><g><path d="M 4.859375 0 L 1.53125 0 L 1.53125 -18.796875 L 4.859375 -18.796875 L 4.859375 -12.078125 C 5.410156 -12.847656 5.984375 -13.378906 6.578125 -13.671875 C 7.179688 -13.972656 7.851562 -14.125 8.59375 -14.125 C 9.863281 -14.125 10.828125 -13.894531 11.484375 -13.4375 C 12.140625 -12.988281 12.613281 -12.441406 12.90625 -11.796875 C 13.207031 -11.191406 13.378906 -10.570312 13.421875 -9.9375 C 13.472656 -9.3125 13.5 -8.648438 13.5 -7.953125 L 13.5 0 L 10.171875 0 L 10.171875 -8.015625 C 10.171875 -9.359375 9.953125 -10.273438 9.515625 -10.765625 C 9.117188 -11.179688 8.535156 -11.390625 7.765625 -11.390625 C 6.804688 -11.390625 6.097656 -11.109375 5.640625 -10.546875 C 5.359375 -10.210938 5.15625 -9.773438 5.03125 -9.234375 C 4.914062 -8.691406 4.859375 -7.960938 4.859375 -7.046875 Z M 4.859375 0 "/></g></g></g><g fill="#8c52ff" fill-opacity="1"><g transform="translate(250.621298, 290.999513)"><g><path d="M 5.5 0.265625 C 4.195312 0.265625 3.113281 -0.0820312 2.25 -0.78125 C 1.394531 -1.476562 0.96875 -2.484375 0.96875 -3.796875 C 0.96875 -4.535156 1.109375 -5.160156 1.390625 -5.671875 C 1.679688 -6.191406 2.0625 -6.617188 2.53125 -6.953125 C 2.976562 -7.265625 3.484375 -7.507812 4.046875 -7.6875 C 4.617188 -7.863281 5.191406 -8.007812 5.765625 -8.125 L 9.875 -8.890625 C 9.84375 -9.742188 9.625 -10.394531 9.21875 -10.84375 C 8.800781 -11.28125 8.1875 -11.5 7.375 -11.5 C 6.75 -11.5 6.191406 -11.3125 5.703125 -10.9375 C 5.222656 -10.570312 4.914062 -10.0625 4.78125 -9.40625 L 1.484375 -9.40625 C 1.640625 -10.488281 2.015625 -11.375 2.609375 -12.0625 C 3.203125 -12.757812 3.921875 -13.273438 4.765625 -13.609375 C 5.609375 -13.953125 6.484375 -14.125 7.390625 -14.125 C 8.191406 -14.125 8.960938 -14.003906 9.703125 -13.765625 C 10.441406 -13.535156 11.066406 -13.1875 11.578125 -12.71875 C 12.117188 -12.238281 12.503906 -11.691406 12.734375 -11.078125 C 12.960938 -10.460938 13.097656 -9.820312 13.140625 -9.15625 C 13.179688 -8.488281 13.203125 -7.832031 13.203125 -7.1875 L 13.203125 0 L 9.875 0 L 9.875 -1.875 C 9.53125 -1.269531 9.113281 -0.8125 8.625 -0.5 C 8.195312 -0.21875 7.710938 -0.0195312 7.171875 0.09375 C 6.640625 0.207031 6.082031 0.265625 5.5 0.265625 Z M 6.3125 -2.34375 C 6.96875 -2.34375 7.554688 -2.472656 8.078125 -2.734375 C 8.804688 -3.097656 9.296875 -3.582031 9.546875 -4.1875 C 9.804688 -4.789062 9.941406 -5.546875 9.953125 -6.453125 L 6.65625 -5.796875 C 6.175781 -5.710938 5.785156 -5.601562 5.484375 -5.46875 C 5.179688 -5.332031 4.929688 -5.175781 4.734375 -5 C 4.597656 -4.875 4.488281 -4.71875 4.40625 -4.53125 C 4.320312 -4.351562 4.28125 -4.148438 4.28125 -3.921875 C 4.28125 -3.410156 4.472656 -3.019531 4.859375 -2.75 C 5.253906 -2.476562 5.738281 -2.34375 6.3125 -2.34375 Z M 6.3125 -2.34375 "/></g></g></g></svg>